<svg aria-hidden="true" style="position: absolute; width: 0; height: 0; overflow: hidden;" version="1.1" xmlns="http://www.w3.org/2000/svg" xmlns:xlink="http://www.w3.org/1999/xlink">
<defs>
<symbol id="icon-IMAGE-1" viewBox="0 0 176 32">
<path d="M51.118 16.989c1.517 0.117 2.755 0.4 3.712 0.85 0.967 0.442 1.663 0.987 2.088 1.637 0.433 0.643 0.649 1.335 0.649 2.075 0 1.059-0.283 1.963-0.849 2.713-0.567 0.741-1.379 1.304-2.438 1.688-1.058 0.375-2.317 0.562-3.775 0.562-0.366 0-0.996-0.013-1.887-0.038-0.883-0.025-1.776-0.038-2.675-0.038-1.758 0-3.071 0.025-3.938 0.075v-0.512c0.567-0.026 0.979-0.091 1.238-0.201 0.258-0.108 0.433-0.307 0.525-0.599 0.101-0.293 0.15-0.759 0.15-1.401v-12.699c0-0.642-0.050-1.109-0.15-1.401-0.091-0.292-0.267-0.491-0.525-0.6s-0.671-0.175-1.238-0.2v-0.512c0.859 0.049 2.154 0.075 3.888 0.075 0.684 0 1.442-0.009 2.276-0.026s1.412-0.025 1.737-0.025c1.375 0 2.533 0.171 3.474 0.512 0.951 0.334 1.664 0.805 2.139 1.413 0.475 0.6 0.712 1.299 0.712 2.099 0 0.634-0.183 1.254-0.55 1.863-0.366 0.608-0.937 1.149-1.712 1.625-0.766 0.466-1.716 0.805-2.85 1.012v0.050zM49.093 16.889c1.108 0 1.883-0.378 2.325-1.137 0.45-0.758 0.676-1.77 0.676-3.037 0-1.283-0.201-2.237-0.601-2.862-0.4-0.634-1.038-0.951-1.913-0.951-0.457 0-0.8 0.063-1.024 0.187-0.218 0.117-0.368 0.329-0.451 0.638-0.075 0.3-0.112 0.759-0.112 1.375v5.787h1.1zM47.993 23.802c0 0.617 0.042 1.071 0.125 1.362 0.091 0.293 0.258 0.492 0.5 0.601s0.621 0.162 1.137 0.162c2.374 0 3.562-1.496 3.562-4.487 0-1.341-0.341-2.363-1.024-3.063-0.676-0.699-1.751-1.050-3.226-1.050h-1.075v6.475zM63.18 18.602c-0.025 0.25-0.037 0.649-0.037 1.2 0 1.134 0.158 2.075 0.474 2.825 0.316 0.741 0.725 1.287 1.225 1.637 0.453 0.319 1.017 0.51 1.624 0.512h0c1.408 0 2.538-0.683 3.387-2.050l0.451 0.151c-0.238 0.751-0.583 1.402-1.024 1.977l0.011-0.015c-0.462 0.606-1.038 1.102-1.697 1.461l-0.028 0.014c-0.691 0.375-1.483 0.563-2.374 0.563-1.176 0-2.209-0.25-3.1-0.75-0.883-0.501-1.575-1.259-2.075-2.277-0.491-1.024-0.737-2.295-0.737-3.812 0-1.55 0.266-2.854 0.8-3.913 0.533-1.066 1.271-1.866 2.213-2.399s2.030-0.8 3.262-0.8c3.209 0 4.813 1.892 4.813 5.675h-7.188zM67.143 18.114c0.025-1.333-0.113-2.441-0.413-3.324-0.292-0.883-0.737-1.326-1.338-1.326-0.608 0-1.115 0.379-1.525 1.138-0.4 0.75-0.645 1.92-0.737 3.512h4.012zM78.93 15.714c0-0.708-0.171-1.266-0.512-1.675-0.334-0.408-0.859-0.613-1.575-0.613-0.334 0-0.667 0.055-1 0.163-0.322 0.091-0.599 0.251-0.826 0.464l0.001-0.001c0.475 0.158 0.846 0.409 1.112 0.75 0.267 0.334 0.4 0.754 0.4 1.263 0 0.007 0 0.016 0 0.024 0 0.693-0.398 1.293-0.977 1.584l-0.010 0.005c-0.316 0.158-0.679 0.238-1.088 0.238-0.549 0-0.991-0.187-1.325-0.563-0.325-0.375-0.487-0.846-0.487-1.412 0-0.884 0.475-1.6 1.425-2.15 1.041-0.575 2.341-0.862 3.899-0.862 1.75 0 2.996 0.383 3.738 1.15 0.358 0.357 0.601 0.804 0.725 1.337s0.187 1.28 0.187 2.238v6.962c0 0.417 0.037 0.713 0.112 0.887 0.083 0.167 0.225 0.25 0.425 0.25 0.274 0 0.592-0.146 0.951-0.438l0.261 0.438c-0.36 0.305-0.784 0.548-1.247 0.705l-0.027 0.008c-0.458 0.149-1.008 0.224-1.65 0.224-0.867 0-1.491-0.192-1.874-0.574-0.384-0.384-0.576-0.884-0.576-1.5-0.416 0.691-0.962 1.212-1.637 1.563-0.622 0.323-1.358 0.512-2.139 0.512-0.009 0-0.017-0-0.026-0h0.001c-0.975 0-1.758-0.254-2.35-0.762-0.583-0.517-0.875-1.232-0.875-2.149 0-0.891 0.292-1.629 0.875-2.213s1.488-1.1 2.713-1.55l1.3-0.488c0.733-0.283 1.262-0.57 1.587-0.862s0.487-0.613 0.487-0.963v-1.988zM78.93 18.752c-0.108 0.183-0.287 0.375-0.538 0.575-0.241 0.192-0.592 0.43-1.050 0.712-0.542 0.375-0.967 0.8-1.275 1.275-0.308 0.466-0.463 1.050-0.463 1.75 0 0.666 0.146 1.167 0.438 1.499 0.292 0.326 0.675 0.487 1.15 0.487 0.675 0 1.254-0.349 1.737-1.050v-5.25zM97.868 23.727c0 0.792 0.121 1.367 0.362 1.725 0.251 0.35 0.676 0.525 1.275 0.525v0.538c-0.475-0.047-1.028-0.075-1.587-0.075h-0c-1.5 0-2.746 0.121-3.738 0.362v-2.312c-0.775 1.592-2.15 2.387-4.125 2.387-1.275 0-2.203-0.333-2.788-0.999-0.283-0.317-0.487-0.738-0.613-1.263-0.116-0.525-0.175-1.212-0.175-2.063v-6.488c0-0.784-0.125-1.353-0.375-1.712-0.242-0.358-0.663-0.538-1.263-0.538v-0.538c0.541 0.050 1.071 0.075 1.587 0.075 1.492 0 2.737-0.116 3.738-0.349v10.599c0 0.709 0.104 1.246 0.313 1.613 0.217 0.358 0.621 0.538 1.212 0.538 0.45 0 0.862-0.129 1.238-0.388 0.383-0.266 0.688-0.624 0.912-1.075 0.213-0.431 0.338-0.938 0.338-1.474 0-0.013-0-0.027-0-0.040l0 0.002v-6.713c0-0.784-0.125-1.353-0.375-1.712-0.242-0.358-0.663-0.538-1.263-0.538v-0.538c0.541 0.050 1.071 0.075 1.587 0.075 1.492 0 2.737-0.116 3.738-0.349v10.725zM108.88 13.302v0.512h-3.025v10.325c0 0.508 0.092 0.871 0.275 1.088 0.184 0.208 0.466 0.313 0.85 0.313 0.725 0 1.304-0.513 1.737-1.538l0.438 0.238c-0.642 1.758-1.808 2.637-3.5 2.637-1.126 0-1.979-0.292-2.563-0.875-0.358-0.349-0.604-0.791-0.738-1.325-0.125-0.541-0.187-1.287-0.187-2.237v-8.625h-2.15v-0.512h2.15v-3.4c1.408 0 2.638-0.274 3.687-0.825v4.224h3.025zM117.743 13.277c0.8 0.049 1.629 0.075 2.488 0.075s1.517-0.026 1.975-0.075v0.512c-0.358 0.091-0.683 0.304-0.975 0.637-0.283 0.334-0.55 0.854-0.8 1.563l-4.575 12.874c-0.342 0.892-0.717 1.499-1.126 1.825-0.5 0.425-1.245 0.638-2.237 0.638-0.442 0-0.88-0.075-1.313-0.225-0.421-0.137-0.778-0.37-1.061-0.674l-0.001-0.002c-0.274-0.308-0.412-0.691-0.412-1.15 0-0.525 0.187-0.945 0.562-1.262s0.871-0.475 1.488-0.475c0.575 0 1.038 0.142 1.388 0.425 0.358 0.283 0.538 0.679 0.538 1.188 0 0.35-0.117 0.675-0.35 0.975-0.225 0.308-0.538 0.538-0.937 0.688 0.124 0.016 0.321 0.025 0.587 0.025 1.067 0 1.846-0.675 2.338-2.024l0.412-1.225-5.437-12.337c-0.267-0.592-0.534-0.979-0.8-1.163-0.259-0.183-0.521-0.274-0.788-0.274v-0.538c1.126 0.1 2.297 0.149 3.513 0.149 1.008 0 2.196-0.049 3.563-0.15v0.538c-0.030-0-0.065-0.001-0.1-0.001-0.269 0-0.535 0.014-0.796 0.041l0.033-0.003c-0.202 0.021-0.385 0.088-0.542 0.19l0.005-0.003c-0.141 0.101-0.212 0.263-0.212 0.488 0 0.199 0.058 0.442 0.175 0.725l3.138 7.562 1.75-4.925c0.275-0.816 0.412-1.499 0.412-2.050 0-0.649-0.166-1.141-0.5-1.475-0.333-0.342-0.8-0.533-1.4-0.575v-0.512zM128.293 15.302c0.775-1.583 2.175-2.374 4.2-2.374 0.7 0 1.271 0.082 1.712 0.25 0.45 0.166 0.816 0.412 1.1 0.738s0.487 0.746 0.613 1.262c0.125 0.518 0.187 1.209 0.187 2.075v6.887c0 0.475 0.054 0.846 0.163 1.113s0.279 0.454 0.512 0.562c0.234 0.109 0.555 0.163 0.963 0.163v0.538c-1.7-0.067-2.825-0.101-3.375-0.101-0.525 0-1.637 0.034-3.338 0.101v-0.538c0.35 0 0.625-0.055 0.826-0.163s0.341-0.295 0.425-0.562c0.091-0.266 0.137-0.637 0.137-1.113v-7.962c0-0.699-0.117-1.229-0.35-1.587-0.225-0.358-0.637-0.538-1.237-0.538-0.467 0-0.896 0.129-1.288 0.388-0.392 0.272-0.702 0.635-0.905 1.059l-0.007 0.016c-0.213 0.425-0.338 0.926-0.338 1.456 0 0.015 0 0.031 0 0.046l-0-0.002v7.125c0 0.475 0.046 0.846 0.138 1.113s0.237 0.454 0.437 0.562c0.2 0.109 0.471 0.163 0.813 0.163v0.538c-1.567-0.067-2.625-0.101-3.175-0.101-0.525 0-1.704 0.034-3.537 0.101v-0.538c0.409 0 0.73-0.055 0.963-0.163 0.241-0.11 0.424-0.31 0.51-0.556l0.002-0.007c0.109-0.266 0.163-0.637 0.163-1.113v-8.075c0-0.792-0.121-1.362-0.362-1.712-0.242-0.358-0.667-0.538-1.275-0.538v-0.538c0.475 0.047 1.027 0.074 1.586 0.075h0.001c1.509 0 2.755-0.116 3.738-0.349v2.299zM142.93 18.602c-0.025 0.25-0.037 0.649-0.037 1.2 0 1.134 0.158 2.075 0.475 2.825 0.316 0.741 0.725 1.287 1.224 1.637 0.508 0.342 1.050 0.512 1.626 0.512 1.408 0 2.537-0.683 3.387-2.050l0.45 0.151c-0.238 0.75-0.583 1.402-1.023 1.977l0.011-0.015c-0.462 0.606-1.038 1.101-1.697 1.461l-0.028 0.014c-0.692 0.375-1.484 0.563-2.375 0.563-1.175 0-2.208-0.25-3.099-0.75-0.884-0.501-1.575-1.259-2.075-2.277-0.492-1.024-0.738-2.295-0.738-3.812 0-1.55 0.267-2.854 0.8-3.913 0.534-1.066 1.271-1.866 2.213-2.399s2.030-0.8 3.263-0.8c3.208 0 4.812 1.892 4.812 5.675h-7.187zM146.893 18.114c0.025-1.333-0.112-2.441-0.412-3.324-0.292-0.883-0.738-1.326-1.338-1.326-0.608 0-1.116 0.379-1.525 1.138-0.4 0.75-0.645 1.92-0.738 3.512h4.013zM152.793 21.577c0.166 1.475 0.525 2.629 1.075 3.462 0.559 0.833 1.346 1.25 2.363 1.25 0.5 0 0.925-0.15 1.274-0.45 0.358-0.309 0.538-0.767 0.538-1.375 0-0.475-0.108-0.901-0.325-1.275-0.218-0.387-0.484-0.716-0.796-0.996l-0.004-0.003c-0.429-0.377-0.905-0.77-1.394-1.149l-0.069-0.052c-0.676-0.541-1.258-1.036-1.826-1.546l0.038 0.034c-0.394-0.373-0.73-0.801-0.998-1.273l-0.014-0.027c-0.283-0.508-0.425-1.083-0.425-1.725 0-0.733 0.2-1.367 0.6-1.9s0.938-0.937 1.613-1.212c0.675-0.274 1.408-0.412 2.2-0.412 0.019-0 0.042-0 0.065-0 0.613 0 1.207 0.087 1.768 0.249l-0.045-0.011c0.542 0.158 0.966 0.341 1.275 0.55 0.166 0.117 0.316 0.175 0.45 0.175 0.316 0 0.517-0.312 0.6-0.937h0.562c-0.067 0.858-0.1 2.359-0.1 4.5h-0.562c-0.15-1.117-0.487-2.054-1.013-2.812-0.517-0.767-1.271-1.15-2.262-1.15-0.508 0-0.925 0.146-1.25 0.437-0.326 0.293-0.488 0.692-0.488 1.2 0 0.575 0.192 1.071 0.575 1.488s0.846 0.816 1.388 1.2c0.541 0.384 0.937 0.671 1.188 0.863 0.699 0.525 1.254 0.983 1.662 1.375 0.417 0.391 0.754 0.837 1.012 1.338 0.259 0.491 0.388 1.058 0.388 1.7 0 0.014 0 0.031 0 0.048 0 0.734-0.249 1.41-0.668 1.947l0.005-0.007c-0.433 0.575-1.021 1.020-1.763 1.338-0.742 0.308-1.554 0.463-2.438 0.463-0.909 0-1.7-0.179-2.375-0.538-0.508-0.259-0.908-0.438-1.2-0.538-0.037-0.014-0.080-0.023-0.124-0.026l-0.001-0c-0.275 0-0.475 0.304-0.6 0.912h-0.562c0.066-0.975 0.1-2.679 0.1-5.112h0.562zM164.618 21.577c0.166 1.475 0.525 2.629 1.075 3.462 0.558 0.833 1.346 1.25 2.363 1.25 0.499 0 0.924-0.15 1.274-0.45 0.358-0.309 0.538-0.767 0.538-1.375 0-0.475-0.109-0.901-0.326-1.275-0.217-0.387-0.484-0.717-0.796-0.996l-0.004-0.003c-0.43-0.378-0.906-0.771-1.394-1.15l-0.068-0.051c-0.676-0.541-1.257-1.035-1.825-1.545l0.038 0.033c-0.394-0.373-0.731-0.801-0.999-1.273l-0.014-0.027c-0.283-0.508-0.424-1.083-0.424-1.725 0-0.733 0.199-1.367 0.6-1.9s0.937-0.937 1.612-1.212c0.635-0.261 1.373-0.413 2.145-0.413 0.019 0 0.039 0 0.058 0l-0.003-0c0.65 0 1.245 0.079 1.787 0.238s0.966 0.341 1.274 0.55c0.167 0.117 0.317 0.175 0.45 0.175 0.317 0 0.518-0.312 0.601-0.937h0.562c-0.067 0.858-0.1 2.359-0.1 4.5h-0.563c-0.15-1.117-0.487-2.054-1.012-2.812-0.517-0.767-1.271-1.15-2.263-1.15-0.508 0-0.924 0.146-1.25 0.437-0.325 0.293-0.487 0.692-0.487 1.2 0 0.575 0.192 1.071 0.575 1.488s0.846 0.816 1.387 1.2c0.542 0.384 0.938 0.671 1.188 0.863 0.7 0.525 1.254 0.983 1.663 1.375 0.416 0.391 0.753 0.837 1.012 1.338 0.259 0.491 0.388 1.058 0.388 1.7 0 0.75-0.221 1.413-0.663 1.988-0.433 0.575-1.020 1.020-1.762 1.338-0.742 0.308-1.554 0.463-2.438 0.463-0.909 0-1.701-0.179-2.375-0.538-0.508-0.259-0.909-0.438-1.2-0.538-0.037-0.014-0.079-0.023-0.123-0.026l-0.001-0c-0.275 0-0.475 0.304-0.601 0.912h-0.562c0.067-0.975 0.101-2.679 0.101-5.112h0.562z"></path>
<path fill="none" stroke="#7a9ca5" style="stroke: var(--color1, #7a9ca5)" stroke-linejoin="miter" stroke-linecap="butt" stroke-miterlimit="4" stroke-width="2.2857" d="M15.086 30.857c7.7 0 13.943-6.243 13.943-13.943s-6.243-13.943-13.943-13.943-13.943 6.243-13.943 13.943 6.243 13.943 13.943 13.943z"></path>
<path fill="none" stroke="#7a9ca5" style="stroke: var(--color1, #7a9ca5)" stroke-linejoin="round" stroke-linecap="round" stroke-miterlimit="4" stroke-width="2.2857" d="M22.643 12.968c0.115 1.193-0.317 2.389-1.2 3.325l-5.286 5.62-7.281 0.7-0.613-6.367 5.296-5.614c0.883-0.935 2.146-1.536 3.51-1.667l4.771 0.114 0.805 3.888zM18.286 12.8l-13.714 13.714M19.2 18.286h-6.4M18.286 12.8h-6.4"></path>
</symbol>
</defs>
</svg>
